# Blender 4.4.3
# www.blender.org
mtllib wallsobj.mtl
o Plane.001
v 2.458512 -1.724189 0.532035
v 1.965887 -1.231564 0.532035
v 1.965886 1.231564 0.532035
v 2.458512 1.724189 0.532035
v 2.951138 1.231564 0.532035
v 2.951138 -1.231564 0.532035
v 2.457986 -1.724189 -1.205919
v 1.965364 -1.231564 -1.204244
v 1.965363 1.231564 -1.204244
v 2.457986 1.724189 -1.205920
v 2.950609 1.231564 -1.207595
v 2.950609 -1.231564 -1.207595
v 2.457986 -1.724189 -1.205919
v 1.965364 -1.231564 -1.204244
v 1.965363 1.231564 -1.204244
v 2.457986 1.724189 -1.205920
v 2.950609 1.231564 -1.207595
v 2.950609 -1.231564 -1.207595
v 2.452643 -1.724190 -2.776742
v 2.104897 -1.231564 -2.427812
v 2.104897 1.231564 -2.427812
v 2.452642 1.724190 -2.776742
v 2.800388 1.231564 -3.125674
v 2.800389 -1.231564 -3.125673
v -3.427324 -1.724189 -2.776743
v -3.078985 -1.231564 -2.428404
v -3.078985 1.231564 -2.428403
v -3.427324 1.724189 -2.776742
v -3.775663 1.231564 -3.125081
v -3.775663 -1.231564 -3.125082
v -3.427324 -1.724189 4.061393
v -3.078985 -1.231564 3.713054
v -3.078985 1.231564 3.713054
v -3.427324 1.724189 4.061393
v -3.775663 1.231564 4.409732
v -3.775663 -1.231564 4.409732
v 2.458512 -1.724189 4.061393
v 2.110173 -1.231564 3.713054
v 2.110173 1.231564 3.713054
v 2.458512 1.724189 4.061393
v 2.806851 1.231564 4.409732
v 2.806851 -1.231564 4.409732
v 2.458512 -1.724189 0.532035
v 1.965887 -1.231564 0.532035
v 1.965886 1.231564 0.532035
v 2.458512 1.724189 0.532035
v 2.951138 1.231564 0.532035
v 2.951138 -1.231564 0.532035
vn -0.0000 -0.0000 -1.0000
vn 0.0034 -0.0000 1.0000
vn 0.7545 -0.6555 -0.0336
vn -0.7667 -0.6409 -0.0368
vn -0.9936 -0.0000 -0.1133
vn -0.7667 0.6409 -0.0368
vn 0.7545 0.6555 -0.0336
vn 0.9969 -0.0000 -0.0781
vn -0.0000 -0.5777 -0.8163
vn -0.0000 -0.5777 0.8163
vn -0.0001 -0.0000 1.0000
vn -0.0000 0.5777 0.8163
vn -0.0000 0.5777 -0.8163
vn -0.0001 -0.0000 -1.0000
vn -0.8165 -0.5774 -0.0000
vn 0.8165 -0.5774 -0.0000
vn 1.0000 -0.0000 -0.0000
vn 0.8165 0.5774 -0.0000
vn -0.8165 0.5773 -0.0000
vn -1.0000 -0.0000 -0.0000
vn -0.0000 -0.5773 0.8165
vn -0.0000 -0.5774 -0.8165
vn -0.0000 0.5773 -0.8165
vn -0.0000 0.5773 0.8165
vn -0.0000 -0.0000 1.0000
vn 0.7579 -0.6522 0.0148
vn -0.7634 -0.6458 0.0164
vn -0.9990 -0.0000 0.0453
vn -0.7634 0.6458 0.0164
vn 0.7579 0.6522 0.0148
vn 0.9993 -0.0000 0.0372
vt 0.780476 0.883437
vt 0.841543 0.883438
vt 0.811010 0.908364
vt 0.780476 0.758802
vt 0.841543 0.758802
vt 0.811010 0.733875
vt 0.702030 0.917076
vt 0.763097 0.917076
vt 0.732564 0.947610
vt 0.702030 0.764409
vt 0.763097 0.764409
vt 0.732564 0.733875
vt 0.820718 0.716496
vt 0.723361 0.716496
vt 0.702030 0.685963
vt 0.821031 0.685963
vt 0.838410 0.685963
vt 0.914425 0.685963
vt 0.936536 0.716496
vt 0.839207 0.716496
vt 0.838410 0.533295
vt 0.914425 0.533295
vt 0.839207 0.502761
vt 0.936536 0.502761
vt 0.821031 0.533295
vt 0.702030 0.533295
vt 0.723361 0.502761
vt 0.820718 0.502761
vt 0.401855 0.471419
vt 0.401850 0.835867
vt 0.364454 0.857457
vt 0.364438 0.449865
vt 0.501450 0.455662
vt 0.501450 0.776965
vt 0.470917 0.798507
vt 0.470917 0.434060
vt 0.654118 0.455662
vt 0.654118 0.776965
vt 0.684652 0.434060
vt 0.684652 0.798507
vt 0.933144 0.485383
vt 0.933144 0.077791
vt 0.970541 0.099379
vt 0.970560 0.463827
vt 0.239819 0.857457
vt 0.239803 0.449865
vt 0.008689 0.454492
vt 0.008689 0.030765
vt 0.039223 0.008689
vt 0.039223 0.475586
vt 0.270337 0.030572
vt 0.270337 0.411193
vt 0.239803 0.432486
vt 0.239803 0.008689
vt 0.423004 0.030572
vt 0.423004 0.411193
vt 0.453538 0.008689
vt 0.453538 0.432486
vt 0.191891 0.475586
vt 0.191891 0.008689
vt 0.222424 0.030765
vt 0.222424 0.454492
vt 0.684652 0.030328
vt 0.684652 0.395139
vt 0.654118 0.416681
vt 0.654118 0.008689
vt 0.046085 0.514555
vt 0.046085 0.836186
vt 0.008689 0.857777
vt 0.008689 0.492965
vt 0.170720 0.514554
vt 0.170720 0.836185
vt 0.953915 0.867573
vt 0.953915 0.502761
vt 0.991311 0.524352
vt 0.991311 0.845982
vt 0.501450 0.008689
vt 0.501450 0.416681
vt 0.470917 0.395139
vt 0.470917 0.030328
vt 0.915765 0.030572
vt 0.915765 0.249306
vt 0.885232 0.248890
vt 0.885232 0.008689
vt 0.885232 0.464288
vt 0.885232 0.267379
vt 0.915765 0.266685
vt 0.915765 0.485383
vt 0.732564 0.464288
vt 0.732564 0.267378
vt 0.702030 0.485383
vt 0.702030 0.266685
vt 0.732564 0.008689
vt 0.732564 0.248890
vt 0.702030 0.249306
vt 0.702030 0.030572
s 0
f 2/1/1 6/2/1 1/3/1
f 3/4/1 6/2/1 2/1/1
f 3/4/1 5/5/1 6/2/1
f 4/6/1 5/5/1 3/4/1
f 12/7/2 8/8/2 7/9/2
f 11/10/2 8/8/2 12/7/2
f 11/10/2 9/11/2 8/8/2
f 10/12/2 9/11/2 11/10/2
f 13/13/3 19/14/3 24/15/3 18/16/3
f 14/17/4 20/18/4 19/19/4 13/20/4
f 15/21/5 21/22/5 20/18/5 14/17/5
f 16/23/6 22/24/6 21/22/6 15/21/6
f 17/25/7 23/26/7 22/27/7 16/28/7
f 18/16/8 24/15/8 23/26/8 17/25/8
f 19/29/9 25/30/9 30/31/9 24/32/9
f 20/33/10 26/34/10 25/35/10 19/36/10
f 21/37/11 27/38/11 26/34/11 20/33/11
f 22/39/12 28/40/12 27/38/12 21/37/12
f 23/41/13 29/42/13 28/43/13 22/44/13
f 24/32/14 30/31/14 29/45/14 23/46/14
f 25/47/15 31/48/15 36/49/15 30/50/15
f 26/51/16 32/52/16 31/53/16 25/54/16
f 27/55/17 33/56/17 32/52/17 26/51/17
f 28/57/18 34/58/18 33/56/18 27/55/18
f 29/59/19 35/60/19 34/61/19 28/62/19
f 30/50/20 36/49/20 35/60/20 29/59/20
f 31/63/21 37/64/21 42/65/21 36/66/21
f 32/67/22 38/68/22 37/69/22 31/70/22
f 33/71/1 39/72/1 38/68/1 32/67/1
f 34/73/23 40/74/23 39/75/23 33/76/23
f 35/77/24 41/78/24 40/79/24 34/80/24
f 36/66/25 42/65/25 41/78/25 35/77/25
f 37/81/26 43/82/26 48/83/26 42/84/26
f 38/85/27 44/86/27 43/87/27 37/88/27
f 39/89/28 45/90/28 44/86/28 38/85/28
f 40/91/29 46/92/29 45/90/29 39/89/29
f 41/93/30 47/94/30 46/95/30 40/96/30
f 42/84/31 48/83/31 47/94/31 41/93/31
